<?xml version="1.0" encoding="utf-8"?>
<!-- Generator: Adobe Illustrator 27.4.0, SVG Export Plug-In . SVG Version: 6.00 Build 0)  -->
<svg version="1.1" id="레이어_1" xmlns="http://www.w3.org/2000/svg" xmlns:xlink="http://www.w3.org/1999/xlink" x="0px"
	 y="0px" viewBox="0 0 712 80" style="enable-background:new 0 0 712 80;" xml:space="preserve">
<g>
	<path d="M264.2,0h69.2v12.8H306V80h-13.7V12.8h-28L264.2,0L264.2,0z"/>
	<path d="M151.7,0v12.8H96.2v20.5h44.6v12.8H96.2v21.1h55.5V80H82.5V12.7l0,0V0H151.7z"/>
	<path d="M184.7,0h-17.9l64.4,80h18L217,40.1l32.2-39.9h-17.9L208,28.9L184.7,0z"/>
	<path d="M203.1,57.1l-9-11.2L166.7,80h18L203.1,57.1z"/>
	<path d="M82.8,80L18.4,0H1.2v80h13.7V17.1L65.5,80H82.8z"/>
</g>
<g>
	<rect x="623.4" width="14" height="80"/>
	<rect x="698" width="14" height="80"/>
	<polygon points="698,0 712,0 674.7,80 660.7,80 	"/>
	<polygon points="637.4,0 623.4,0 660.7,80 674.7,80 	"/>
	<rect x="450.3" width="14" height="66"/>
	<rect x="450.3" y="66" width="69" height="14"/>
	<polygon points="548.3,80 534.3,80 571.6,0 585.6,0 	"/>
	<polygon points="609.1,80 623.1,80 585.8,0 571.8,0 	"/>
	<polygon points="601.2,61.1 566.2,61.1 572.7,47.1 607.7,47.1 	"/>
	<path d="M414.9,14.7c0,0,4.1,2.4,4.7,7.7h14.2c2.3-26.1-57.7-33.6-60.3,0.5c-0.8,12.7,12,19.4,31.6,23.2
		c1.1,0.4,15.3,2.5,14.8,10.7c-0.6,5.2-2.7,10.4-16.5,11.1c-4.8,0.1-16.6-1.5-17.3-12.1h-14.8c0.3,37,77.9,29.5,61.8-7.7
		c0,0-1.6-3.6-5.5-6.4s0,0,0,0s-2.8-2.4-7.8-4.4c-4.9-2,0,0,0,0s-0.8-0.7-9.1-2.8c-8.2-2.1,0,0,0,0s-10.6-2.3-12.8-3.2
		c-2.2-0.9,0,0,0,0s-6.1-2-7.8-5.1s0,0,0,0s-1.3-1.7-1.3-4.2s0,0,0,0s-0.1-2.5,1.8-5.2s0,0,0,0s2.1-2.5,5.2-3.6s0,0,0,0
		s2.7-1.2,8.1-1.3s0,0,0,0S409.8,11.6,414.9,14.7C419.9,17.9,414.9,14.7,414.9,14.7"/>
</g>
</svg>
